<!-- Generated by IcoMoon.io -->
<svg version="1.1" xmlns="http://www.w3.org/2000/svg" width="32" height="32" viewBox="0 0 32 32">
<path d="M27.98 13.799c-0.014-0.066-0.035-0.131-0.063-0.193l-2.361-5.51c-0.544-1.273-1.869-2.096-3.376-2.096h-12.361c-1.506 0-2.831 0.823-3.375 2.096l-2.364 5.51c-0.054 0.124-0.081 0.258-0.081 0.394v11c0 0.265 0.105 0.52 0.293 0.707s0.442 0.293 0.707 0.293h2c0.265 0 0.52-0.105 0.707-0.293s0.293-0.442 0.293-0.707v-1h16v1c0 0.265 0.105 0.52 0.293 0.707s0.442 0.293 0.707 0.293h2c0.265 0 0.52-0.105 0.707-0.293s0.293-0.442 0.293-0.707v-11c0-0.068-0.007-0.135-0.020-0.201zM9 20c-0.396 0-0.782-0.117-1.111-0.337s-0.585-0.532-0.737-0.897c-0.151-0.366-0.191-0.768-0.114-1.156s0.268-0.744 0.547-1.024 0.636-0.47 1.024-0.547c0.388-0.077 0.79-0.038 1.156 0.114s0.678 0.408 0.898 0.736c0.22 0.329 0.337 0.716 0.337 1.111 0 0.53-0.211 1.039-0.586 1.414s-0.884 0.586-1.414 0.586zM23 20c-0.396 0-0.782-0.117-1.111-0.337s-0.585-0.532-0.736-0.897c-0.152-0.366-0.191-0.768-0.114-1.156s0.268-0.744 0.547-1.024 0.636-0.47 1.024-0.547c0.388-0.077 0.79-0.038 1.156 0.114s0.678 0.408 0.897 0.736c0.22 0.329 0.337 0.716 0.337 1.111 0 0.53-0.211 1.039-0.586 1.414s-0.884 0.586-1.414 0.586zM6.516 13l1.764-4.116c0.226-0.529 0.844-0.884 1.539-0.884h12.361c0.694 0 1.312 0.356 1.539 0.884l1.764 4.116h-18.967z"></path>
</svg>
