<!-- Generated by IcoMoon.io -->
<svg version="1.1" xmlns="http://www.w3.org/2000/svg" width="34" height="32" viewBox="0 0 34 32">
<path d="M15.195 0.609c0.429-0.813 1.593-0.813 2.022 0l4.316 8.18c0.165 0.313 0.467 0.532 0.816 0.593l9.114 1.577c0.905 0.157 1.265 1.264 0.625 1.923l-6.446 6.633c-0.247 0.254-0.362 0.608-0.312 0.959l1.317 9.155c0.131 0.91-0.811 1.594-1.635 1.188l-8.3-4.081c-0.318-0.156-0.691-0.156-1.009 0l-8.3 4.081c-0.825 0.405-1.766-0.279-1.636-1.188l1.317-9.155c0.050-0.351-0.065-0.705-0.312-0.959l-6.446-6.633c-0.64-0.659-0.281-1.766 0.625-1.923l9.114-1.577c0.349-0.060 0.651-0.279 0.816-0.593l4.316-8.18z"></path>
</svg>
