<svg width="136" height="15" viewBox="0 0 136 15" fill="none" xmlns="http://www.w3.org/2000/svg">
<path d="M135.393 7.18732H131.785C131.766 6.96478 131.688 6.77302 131.55 6.61204C131.413 6.45105 131.235 6.32795 131.018 6.24272C130.804 6.15276 130.568 6.10778 130.307 6.10778C129.971 6.10778 129.682 6.16933 129.441 6.29244C129.199 6.41554 129.081 6.59073 129.086 6.818C129.081 6.97899 129.15 7.12814 129.292 7.26545C129.438 7.40276 129.72 7.50929 130.137 7.58505L132.353 7.98278C133.47 8.18638 134.301 8.52965 134.846 9.01261C135.395 9.49083 135.672 10.1324 135.677 10.9373C135.672 11.7138 135.44 12.3886 134.981 12.9615C134.526 13.5297 133.903 13.97 133.113 14.2825C132.327 14.5903 131.429 14.7441 130.421 14.7441C128.754 14.7441 127.45 14.4032 126.508 13.7214C125.57 13.0396 125.047 12.14 124.938 11.0225H128.83C128.882 11.3682 129.053 11.6357 129.341 11.8251C129.635 12.0098 130.004 12.1021 130.449 12.1021C130.809 12.1021 131.105 12.0405 131.337 11.9174C131.574 11.7943 131.695 11.6191 131.699 11.3919C131.695 11.1835 131.59 11.0178 131.387 10.8947C131.188 10.7716 130.875 10.6722 130.449 10.5964L128.518 10.2555C127.405 10.0614 126.572 9.69206 126.018 9.14755C125.464 8.60304 125.189 7.90228 125.194 7.04528C125.189 6.2877 125.388 5.64613 125.79 5.12056C126.197 4.59026 126.777 4.1878 127.53 3.91317C128.288 3.63382 129.185 3.49414 130.222 3.49414C131.799 3.49414 133.042 3.82084 133.951 4.47425C134.865 5.12766 135.345 6.03202 135.393 7.18732Z" fill="#475467"/>
<path d="M116.415 11.9602L116.443 7.30114H116.955L119.597 3.63636H124L119.568 9.34659H118.46L116.415 11.9602ZM112.892 14.5455V0H116.813V14.5455H112.892ZM119.625 14.5455L117.125 10.2273L119.682 7.44318L124.114 14.5455H119.625Z" fill="#475467"/>
<path d="M105.619 14.7441C104.435 14.7441 103.422 14.5098 102.579 14.041C101.736 13.5675 101.09 12.9094 100.64 12.0666C100.19 11.219 99.9653 10.2366 99.9653 9.11914C99.9653 8.00172 100.19 7.0216 100.64 6.1788C101.09 5.33126 101.736 4.67312 102.579 4.20437C103.422 3.73088 104.435 3.49414 105.619 3.49414C106.689 3.49414 107.614 3.68827 108.396 4.07653C109.182 4.46005 109.79 5.00456 110.221 5.71005C110.652 6.41081 110.87 7.23467 110.874 8.18164H107.238C107.186 7.60872 107.02 7.17312 106.741 6.87482C106.466 6.57179 106.111 6.42028 105.676 6.42028C105.335 6.42028 105.036 6.51971 104.781 6.71857C104.525 6.9127 104.326 7.20863 104.184 7.60636C104.042 7.99935 103.971 8.49414 103.971 9.09073C103.971 9.68732 104.042 10.1845 104.184 10.5822C104.326 10.9752 104.525 11.2711 104.781 11.47C105.036 11.6641 105.335 11.7612 105.676 11.7612C105.964 11.7612 106.22 11.6949 106.443 11.5623C106.665 11.425 106.845 11.2261 106.982 10.9657C107.124 10.7006 107.21 10.3786 107.238 9.99982H110.874C110.86 10.961 110.64 11.7991 110.214 12.514C109.788 13.2243 109.184 13.7735 108.403 14.1618C107.626 14.55 106.698 14.7441 105.619 14.7441Z" fill="#475467"/>
<path d="M94.0485 9.77259V3.63623H97.9689V14.5453H94.2473V12.4715H94.1337C93.897 13.1675 93.4827 13.712 92.8908 14.105C92.299 14.4932 91.5958 14.6874 90.7814 14.6874C90.0191 14.6874 89.3515 14.5122 88.7786 14.1618C88.2104 13.8114 87.7677 13.3285 87.4505 12.7129C87.138 12.0974 86.9793 11.3919 86.9746 10.5965V3.63623H90.8951V9.77259C90.8998 10.3124 91.0371 10.7361 91.307 11.0439C91.5816 11.3517 91.9651 11.5055 92.4576 11.5055C92.7843 11.5055 93.066 11.4369 93.3027 11.2996C93.5442 11.1575 93.7289 10.9587 93.8567 10.703C93.9893 10.4426 94.0532 10.1324 94.0485 9.77259Z" fill="#475467"/>
<path d="M77.9028 14.5453V3.63619H81.7097V5.71005H81.8233C82.0222 4.943 82.337 4.38192 82.7679 4.02681C83.2035 3.6717 83.7125 3.49414 84.2949 3.49414C84.4653 3.49414 84.6334 3.50834 84.7991 3.53675C84.9696 3.56043 85.1329 3.59594 85.2892 3.64329V6.98846C85.0951 6.92217 84.856 6.87245 84.5719 6.83931C84.2878 6.80617 84.0439 6.78959 83.8403 6.78959C83.4568 6.78959 83.1112 6.87719 82.8034 7.05238C82.5004 7.22283 82.2613 7.46431 82.0861 7.77681C81.9109 8.08458 81.8233 8.44679 81.8233 8.86346V14.5453H77.9028Z" fill="#475467"/>
<path d="M64.4507 3.18182V0H77.0927V3.18182H72.7177V14.5455H68.8257V3.18182H64.4507Z" fill="#475467"/>
<path d="M62.5079 0V14.5455H58.5874V0H62.5079Z" fill="#101828"/>
<path d="M51.2466 14.7441C50.0818 14.7441 49.078 14.5216 48.2352 14.0765C47.3971 13.6267 46.7508 12.9828 46.2963 12.1447C45.8465 11.3019 45.6216 10.2934 45.6216 9.11914C45.6216 7.99225 45.8489 7.0074 46.3034 6.16459C46.7579 5.32179 47.3995 4.66602 48.2281 4.19727C49.0567 3.72852 50.0345 3.49414 51.1614 3.49414C51.9852 3.49414 52.731 3.62198 53.3986 3.87766C54.0662 4.13334 54.6367 4.50503 55.1102 4.99272C55.5837 5.47567 55.9483 6.0628 56.204 6.75408C56.4597 7.44537 56.5875 8.22425 56.5875 9.09073V9.99982H46.8432V7.84073H52.9795C52.9748 7.52823 52.8943 7.25361 52.7381 7.01687C52.5865 6.77539 52.3806 6.58836 52.1202 6.45579C51.8645 6.31848 51.5733 6.24982 51.2466 6.24982C50.9293 6.24982 50.6382 6.31848 50.373 6.45579C50.1079 6.58836 49.8948 6.77302 49.7338 7.00976C49.5775 7.24651 49.4947 7.5235 49.4852 7.84073V10.1703C49.4852 10.5207 49.5586 10.8332 49.7054 11.1078C49.8522 11.3824 50.0629 11.5978 50.3375 11.7541C50.6121 11.9103 50.9436 11.9885 51.3318 11.9885C51.6017 11.9885 51.8479 11.9506 52.0704 11.8748C52.2977 11.7991 52.4918 11.6902 52.6528 11.5481C52.8138 11.4013 52.9322 11.2261 53.0079 11.0225H56.5875C56.4644 11.7801 56.1732 12.4383 55.7139 12.997C55.2546 13.551 54.6462 13.9818 53.8886 14.2896C53.1358 14.5926 52.2551 14.7441 51.2466 14.7441Z" fill="#101828"/>
<path d="M44.8364 3.63623L41.1717 14.5453H36.6262L32.9614 3.63623H37.0807L38.8421 10.8521H38.9557L40.7171 3.63623H44.8364Z" fill="#101828"/>
<path d="M25.056 14.7157C24.36 14.7157 23.7445 14.6021 23.2094 14.3748C22.6791 14.1428 22.2625 13.7924 21.9594 13.3237C21.6564 12.8549 21.5049 12.2583 21.5049 11.5339C21.5049 10.9373 21.6067 10.4283 21.8103 10.0069C22.0139 9.58079 22.298 9.23278 22.6626 8.96289C23.0271 8.693 23.4509 8.48704 23.9339 8.34499C24.4216 8.20295 24.9471 8.11062 25.5106 8.068C26.1214 8.02066 26.6114 7.96384 26.9807 7.89755C27.3548 7.82653 27.6247 7.72946 27.7904 7.60636C27.9561 7.47851 28.039 7.31043 28.039 7.10209V7.07369C28.039 6.78959 27.9301 6.57179 27.7123 6.42028C27.4945 6.26876 27.2151 6.193 26.8742 6.193C26.5001 6.193 26.1948 6.27586 25.958 6.44158C25.726 6.60257 25.5863 6.85115 25.539 7.18732H21.931C21.9784 6.52444 22.1891 5.91365 22.5631 5.35494C22.9419 4.79149 23.4935 4.34168 24.218 4.0055C24.9424 3.66459 25.8467 3.49414 26.931 3.49414C27.7123 3.49414 28.413 3.58647 29.0333 3.77113C29.6536 3.95105 30.1815 4.20437 30.6171 4.53107C31.0527 4.85304 31.3841 5.23183 31.6114 5.66744C31.8434 6.09831 31.9594 6.56706 31.9594 7.07369V14.5453H28.2947V13.0112H28.2094C27.9916 13.4184 27.7265 13.7475 27.414 13.9984C27.1062 14.2493 26.7535 14.4316 26.3557 14.5453C25.9627 14.6589 25.5295 14.7157 25.056 14.7157ZM26.3344 12.2441C26.6327 12.2441 26.9121 12.1826 27.1725 12.0595C27.4376 11.9364 27.6531 11.7588 27.8188 11.5268C27.9845 11.2948 28.0674 11.0131 28.0674 10.6816V9.77255C27.9632 9.81516 27.8519 9.85541 27.7336 9.89329C27.6199 9.93117 27.4968 9.96668 27.3643 9.99982C27.2364 10.033 27.0991 10.0637 26.9523 10.0922C26.8103 10.1206 26.6611 10.1466 26.5049 10.1703C26.2019 10.2176 25.9533 10.2958 25.7591 10.4047C25.5697 10.5088 25.4277 10.639 25.333 10.7953C25.243 10.9468 25.1981 11.1172 25.1981 11.3066C25.1981 11.6097 25.3046 11.8417 25.5177 12.0027C25.7307 12.1636 26.003 12.2441 26.3344 12.2441Z" fill="#101828"/>
<path d="M13.4521 14.5453V3.63619H17.259V5.71005H17.3726C17.5715 4.943 17.8863 4.38192 18.3172 4.02681C18.7528 3.6717 19.2618 3.49414 19.8442 3.49414C20.0146 3.49414 20.1827 3.50834 20.3485 3.53675C20.5189 3.56043 20.6823 3.59594 20.8385 3.64329V6.98846C20.6444 6.92217 20.4053 6.87245 20.1212 6.83931C19.8371 6.80617 19.5932 6.78959 19.3896 6.78959C19.0061 6.78959 18.6605 6.87719 18.3527 7.05238C18.0497 7.22283 17.8106 7.46431 17.6354 7.77681C17.4602 8.08458 17.3726 8.44679 17.3726 8.86346V14.5453H13.4521Z" fill="#101828"/>
<path d="M0 3.18182V0H12.642V3.18182H8.26705V14.5455H4.375V3.18182H0Z" fill="#101828"/>
</svg>
